# 3ds Max Wavefront OBJ Exporter v0.97b - (c)2007 guruware
# File Created: 24.04.2020 13:35:16

mtllib Table_wood.mtl

#
# object table
#

v  -42.5000 60.0000 25.0000
v  -42.5000 60.0000 -25.0000
v  42.5000 60.0000 -25.0000
v  42.5000 60.0000 25.0000
v  -42.5000 63.9786 25.0000
v  42.5000 63.9786 25.0000
v  42.5000 63.9786 -25.0000
v  -42.5000 63.9786 -25.0000
v  33.4248 60.2901 -2.4455
v  33.4248 62.0185 3.3001
v  39.4248 62.0185 3.3001
v  39.4248 60.2901 -2.4455
v  33.4248 -0.9970 15.9907
v  39.4248 -0.9970 15.9907
v  39.4248 0.7314 21.7364
v  33.4248 0.7314 21.7364
v  33.4248 62.0588 -2.4331
v  33.4248 60.2497 3.2877
v  39.4248 60.2497 3.2877
v  39.4248 62.0588 -2.4331
v  33.4248 1.0374 -21.7303
v  39.4248 1.0374 -21.7303
v  39.4248 -0.7717 -16.0095
v  33.4248 -0.7717 -16.0095
v  -33.6633 27.0356 20.0000
v  -33.6633 27.0356 -20.0000
v  33.6633 27.0356 -20.0000
v  33.6633 27.0356 20.0000
v  -33.6633 31.0142 20.0000
v  33.6633 31.0142 20.0000
v  33.6633 31.0142 -20.0000
v  -33.6633 31.0142 -20.0000
v  32.6380 0.0000 22.5000
v  32.6380 0.0000 -22.5000
v  41.3983 0.0000 -22.5000
v  41.3983 0.0000 22.5000
v  32.6380 4.9183 22.5000
v  41.3983 4.9183 22.5000
v  41.3983 4.9183 -22.5000
v  32.6380 4.9183 -22.5000
v  -41.3438 0.0000 22.5000
v  -41.3438 0.0000 -22.5000
v  -32.5835 0.0000 -22.5000
v  -32.5835 0.0000 22.5000
v  -41.3438 4.9183 22.5000
v  -32.5835 4.9183 22.5000
v  -32.5835 4.9183 -22.5000
v  -41.3438 4.9183 -22.5000
v  -39.5874 60.2901 -2.4455
v  -39.5874 62.0185 3.3001
v  -33.5874 62.0185 3.3001
v  -33.5874 60.2901 -2.4455
v  -39.5874 -0.9970 15.9907
v  -33.5874 -0.9970 15.9907
v  -33.5874 0.7314 21.7364
v  -39.5874 0.7314 21.7364
v  -39.5874 62.0588 -2.4331
v  -39.5874 60.2497 3.2877
v  -33.5874 60.2497 3.2877
v  -33.5874 62.0588 -2.4331
v  -39.5874 1.0374 -21.7303
v  -33.5874 1.0374 -21.7303
v  -33.5874 -0.7717 -16.0095
v  -39.5874 -0.7717 -16.0095
# 64 vertices

vn -0.5774 -0.5774 0.5774
vn -0.5774 -0.5774 -0.5774
vn 0.5774 -0.5774 -0.5774
vn 0.5774 -0.5774 0.5774
vn -0.5774 0.5774 0.5774
vn 0.5774 0.5774 0.5774
vn 0.5774 0.5774 -0.5774
vn -0.5774 0.5774 -0.5774
vn -0.5774 0.3866 -0.7192
vn -0.5774 0.7192 0.3866
vn 0.5774 0.7192 0.3866
vn 0.5774 0.3866 -0.7192
vn -0.5774 -0.7192 -0.3866
vn 0.5774 -0.7192 -0.3866
vn 0.5774 -0.3866 0.7192
vn -0.5774 -0.3866 0.7192
vn -0.5774 0.7246 -0.3764
vn -0.5774 0.3764 0.7246
vn 0.5774 0.3764 0.7246
vn 0.5774 0.7246 -0.3764
vn -0.5774 -0.3764 -0.7246
vn 0.5774 -0.3764 -0.7246
vn 0.5774 -0.7246 0.3764
vn -0.5774 -0.7246 0.3764
# 24 vertex normals

vt 0.0005 0.3901 0.0000
vt 0.0005 0.1009 0.0000
vt 0.4921 0.1009 0.0000
vt 0.4921 0.3901 0.0000
vt 0.0005 0.3932 0.0000
vt 0.4921 0.3932 0.0000
vt 0.4921 0.6824 0.0000
vt 0.0005 0.6824 0.0000
vt 0.3348 0.0005 0.0000
vt 0.7894 0.0005 0.0000
vt 0.7894 0.0218 0.0000
vt 0.3348 0.0218 0.0000
vt 0.0005 0.0233 0.0000
vt 0.2897 0.0233 0.0000
vt 0.2897 0.0463 0.0000
vt 0.0005 0.0463 0.0000
vt 0.7813 0.0233 0.0000
vt 0.7813 0.0463 0.0000
vt 0.0051 0.0005 0.0000
vt 0.0051 0.0218 0.0000
vt 0.9666 0.8863 0.0000
vt 0.9666 0.9210 0.0000
vt 0.9319 0.9210 0.0000
vt 0.9319 0.8863 0.0000
vt 0.0005 0.9502 0.0000
vt 0.0352 0.9502 0.0000
vt 0.0352 0.9849 0.0000
vt 0.0005 0.9849 0.0000
vt 0.9904 0.8455 0.0000
vt 0.9557 0.8455 0.0000
vt 0.9557 0.4753 0.0000
vt 0.9904 0.4753 0.0000
vt 0.9210 0.8455 0.0000
vt 0.9210 0.4753 0.0000
vt 0.8863 0.8455 0.0000
vt 0.8863 0.4753 0.0000
vt 0.6379 0.7131 0.0000
vt 0.6032 0.7131 0.0000
vt 0.6032 0.3429 0.0000
vt 0.6379 0.3429 0.0000
vt 0.8863 0.9575 0.0000
vt 0.8863 0.9228 0.0000
vt 0.9210 0.9228 0.0000
vt 0.9210 0.9575 0.0000
vt 0.9666 0.8844 0.0000
vt 0.9319 0.8844 0.0000
vt 0.9319 0.8497 0.0000
vt 0.9666 0.8497 0.0000
vt 0.7438 0.7131 0.0000
vt 0.7091 0.7131 0.0000
vt 0.7091 0.3429 0.0000
vt 0.7438 0.3429 0.0000
vt 0.6744 0.7131 0.0000
vt 0.6744 0.3429 0.0000
vt 0.6397 0.7131 0.0000
vt 0.6397 0.3429 0.0000
vt 0.5648 0.7131 0.0000
vt 0.5301 0.7131 0.0000
vt 0.5301 0.3429 0.0000
vt 0.5648 0.3429 0.0000
vt 0.0005 0.9167 0.0000
vt 0.0005 0.6854 0.0000
vt 0.3899 0.6854 0.0000
vt 0.3899 0.9167 0.0000
vt 0.5027 0.1009 0.0000
vt 0.8921 0.1009 0.0000
vt 0.8921 0.3323 0.0000
vt 0.5027 0.3323 0.0000
vt 0.2637 0.0507 0.0000
vt 0.6246 0.0507 0.0000
vt 0.6246 0.0721 0.0000
vt 0.2637 0.0721 0.0000
vt 0.0005 0.0736 0.0000
vt 0.2319 0.0736 0.0000
vt 0.2319 0.0966 0.0000
vt 0.0005 0.0966 0.0000
vt 0.6213 0.0736 0.0000
vt 0.6213 0.0966 0.0000
vt 0.0005 0.0507 0.0000
vt 0.0005 0.0721 0.0000
vt 0.5073 0.9776 0.0000
vt 0.5073 0.7173 0.0000
vt 0.5580 0.7173 0.0000
vt 0.5580 0.9776 0.0000
vt 0.6711 0.7173 0.0000
vt 0.7109 0.7173 0.0000
vt 0.7109 0.9787 0.0000
vt 0.6711 0.9787 0.0000
vt 0.7904 0.0005 0.0000
vt 0.8410 0.0005 0.0000
vt 0.8410 0.0289 0.0000
vt 0.7904 0.0289 0.0000
vt 0.7394 0.7173 0.0000
vt 0.7394 0.9787 0.0000
vt 0.0005 0.9182 0.0000
vt 0.0512 0.9182 0.0000
vt 0.0512 0.9467 0.0000
vt 0.0005 0.9467 0.0000
vt 0.6351 0.9787 0.0000
vt 0.6351 0.7173 0.0000
vt 0.5712 0.9776 0.0000
vt 0.5712 0.7173 0.0000
vt 0.6219 0.7173 0.0000
vt 0.6219 0.9776 0.0000
vt 0.7853 0.7173 0.0000
vt 0.8250 0.7173 0.0000
vt 0.8250 0.9787 0.0000
vt 0.7853 0.9787 0.0000
vt 0.8452 0.0005 0.0000
vt 0.8958 0.0005 0.0000
vt 0.8958 0.0289 0.0000
vt 0.8452 0.0289 0.0000
vt 0.8536 0.7173 0.0000
vt 0.8536 0.9787 0.0000
vt 0.6260 0.0599 0.0000
vt 0.6767 0.0599 0.0000
vt 0.6767 0.0883 0.0000
vt 0.6260 0.0883 0.0000
vt 0.7493 0.9787 0.0000
vt 0.7493 0.7173 0.0000
vt 0.4370 0.6854 0.0000
vt 0.4370 0.7201 0.0000
vt 0.4023 0.7201 0.0000
vt 0.4023 0.6854 0.0000
vt 0.8863 0.8863 0.0000
vt 0.9210 0.8863 0.0000
vt 0.9210 0.9210 0.0000
vt 0.8863 0.9210 0.0000
vt 0.9301 0.4711 0.0000
vt 0.8954 0.4711 0.0000
vt 0.8954 0.1009 0.0000
vt 0.9301 0.1009 0.0000
vt 0.5283 0.7131 0.0000
vt 0.4936 0.7131 0.0000
vt 0.4936 0.3429 0.0000
vt 0.5283 0.3429 0.0000
vt 0.9995 0.4711 0.0000
vt 0.9648 0.4711 0.0000
vt 0.9648 0.1009 0.0000
vt 0.9995 0.1009 0.0000
vt 0.4479 0.7201 0.0000
vt 0.4479 0.6854 0.0000
vt 0.4826 0.6854 0.0000
vt 0.4826 0.7201 0.0000
vt 0.9210 0.8844 0.0000
vt 0.8863 0.8844 0.0000
vt 0.8863 0.8497 0.0000
vt 0.9210 0.8497 0.0000
vt 0.7840 0.7131 0.0000
vt 0.7493 0.7131 0.0000
vt 0.7493 0.3429 0.0000
vt 0.7840 0.3429 0.0000
vt 0.6014 0.7131 0.0000
vt 0.5667 0.7131 0.0000
vt 0.5667 0.3429 0.0000
vt 0.6014 0.3429 0.0000
vt 0.8534 0.7131 0.0000
vt 0.8187 0.7131 0.0000
vt 0.8187 0.3429 0.0000
vt 0.8534 0.3429 0.0000
# 160 texture coords

o table
g table
usemtl wire_225143087
s 2
f 1/1/1 2/2/2 3/3/3 4/4/4 
s 4
f 5/5/5 6/6/6 7/7/7 8/8/8 
s 8
f 1/9/1 4/10/4 6/11/6 5/12/5 
s 16
f 4/13/4 3/14/3 7/15/7 6/16/6 
s 32
f 3/14/3 2/17/2 8/18/8 7/15/7 
s 64
f 2/19/2 1/9/1 5/12/5 8/20/8 
s 2
f 9/21/9 10/22/10 11/23/11 12/24/12 
s 4
f 13/25/13 14/26/14 15/27/15 16/28/16 
s 8
f 9/29/9 12/30/12 14/31/14 13/32/13 
s 16
f 12/30/12 11/33/11 15/34/15 14/31/14 
s 32
f 11/33/11 10/35/10 16/36/16 15/34/15 
s 64
f 10/37/10 9/38/9 13/39/13 16/40/16 
s 2
f 17/41/17 18/42/18 19/43/19 20/44/20 
s 4
f 21/45/21 22/46/22 23/47/23 24/48/24 
s 8
f 17/49/17 20/50/20 22/51/22 21/52/21 
s 16
f 20/50/20 19/53/19 23/54/23 22/51/22 
s 32
f 19/53/19 18/55/18 24/56/24 23/54/23 
s 64
f 18/57/18 17/58/17 21/59/21 24/60/24 
s 2
f 25/61/1 26/62/2 27/63/3 28/64/4 
s 4
f 29/65/5 30/66/6 31/67/7 32/68/8 
s 8
f 25/69/1 28/70/4 30/71/6 29/72/5 
s 16
f 28/73/4 27/74/3 31/75/7 30/76/6 
s 32
f 27/74/3 26/77/2 32/78/8 31/75/7 
s 64
f 26/79/2 25/69/1 29/72/5 32/80/8 
s 2
f 33/81/1 34/82/2 35/83/3 36/84/4 
s 4
f 37/85/5 38/86/6 39/87/7 40/88/8 
s 8
f 33/89/1 36/90/4 38/91/6 37/92/5 
s 16
f 36/93/4 35/94/3 39/87/7 38/86/6 
s 32
f 35/95/3 34/96/2 40/97/8 39/98/7 
s 64
f 34/99/2 33/100/1 37/85/5 40/88/8 
s 2
f 41/101/1 42/102/2 43/103/3 44/104/4 
s 4
f 45/105/5 46/106/6 47/107/7 48/108/8 
s 8
f 41/109/1 44/110/4 46/111/6 45/112/5 
s 16
f 44/113/4 43/114/3 47/107/7 46/106/6 
s 32
f 43/115/3 42/116/2 48/117/8 47/118/7 
s 64
f 42/119/2 41/120/1 45/105/5 48/108/8 
s 2
f 49/121/9 50/122/10 51/123/11 52/124/12 
s 4
f 53/125/13 54/126/14 55/127/15 56/128/16 
s 8
f 49/129/9 52/130/12 54/131/14 53/132/13 
s 16
f 52/133/12 51/134/11 55/135/15 54/136/14 
s 32
f 51/137/11 50/138/10 56/139/16 55/140/15 
s 64
f 50/138/10 49/129/9 53/132/13 56/139/16 
s 2
f 57/141/17 58/142/18 59/143/19 60/144/20 
s 4
f 61/145/21 62/146/22 63/147/23 64/148/24 
s 8
f 57/149/17 60/150/20 62/151/22 61/152/21 
s 16
f 60/153/20 59/154/19 63/155/23 62/156/22 
s 32
f 59/157/19 58/158/18 64/159/24 63/160/23 
s 64
f 58/158/18 57/149/17 61/152/21 64/159/24 
# 48 polygons

