# 3ds Max Wavefront OBJ Exporter v0.97b - (c)2007 guruware
# File Created: 23.04.2020 09:50:56

mtllib buche.mtl

#
# object bûche
#

v  634.5708 36.3700 225.6241
v  634.5708 19.2689 225.6241
v  609.5708 19.2689 225.6241
v  609.5708 36.3700 225.6241
v  634.5708 45.0717 236.6164
v  609.5708 45.0717 236.6164
v  634.5708 52.4397 258.0670
v  609.5708 48.0412 253.4576
v  634.5708 43.8892 272.8770
v  609.5708 39.4907 268.2675
v  634.5708 27.8195 278.7258
v  609.5708 28.2921 266.5224
v  634.5708 11.7498 272.8770
v  623.8618 12.2224 260.6736
v  634.5708 3.1993 258.0671
v  609.5708 3.1993 253.4577
v  634.5708 6.1688 236.6165
v  609.5708 1.7704 236.6165
v  709.5708 31.9715 225.6241
v  709.5708 19.2689 225.6241
v  684.5708 19.2689 225.6241
v  695.2126 38.9935 225.6241
v  709.5708 45.0717 236.6164
v  684.5708 49.4701 241.2258
v  709.5708 48.0412 253.4576
v  684.5708 52.4397 258.0670
v  709.5708 39.4907 268.2675
v  684.5708 43.8892 272.8770
v  709.5708 27.8195 278.7258
v  684.5708 27.8195 278.7258
v  709.5708 11.7498 272.8770
v  684.5708 11.7498 272.8770
v  709.5708 3.1993 253.4577
v  684.5708 3.1993 258.0671
v  709.5708 6.1688 236.6165
v  684.5708 6.1688 241.2259
v  734.5708 36.0292 231.1737
v  734.5708 48.6048 241.7271
v  734.5706 27.8011 253.7038
v  734.5708 51.4547 257.8944
v  734.5708 43.2464 272.1109
v  734.5708 27.8205 277.7258
v  734.5708 12.3937 272.1119
v  734.5708 4.1843 257.8947
v  734.5708 7.0355 241.7247
v  734.5708 19.6097 231.1737
v  659.5708 36.3700 230.2335
v  659.5708 12.6173 237.6027
v  585.5542 19.2689 230.0522
v  585.5542 36.3700 230.0522
v  670.2126 52.0937 241.2258
v  585.5398 49.2996 241.0472
v  659.5708 45.7881 265.4362
v  591.2985 48.9630 257.8344
v  659.5708 35.9612 276.9194
v  585.5398 43.7187 272.6983
v  659.5708 25.0806 282.2030
v  585.4694 27.8365 278.2872
v  659.5708 11.7498 272.8770
v  585.5258 11.7613 272.5804
v  659.5708 3.1993 258.0671
v  582.1455 7.3110 257.9086
v  659.5708 -0.4828 248.5950
v  582.1143 10.1388 241.0724
v  733.6018 36.1995 230.0549
v  733.5874 19.2689 230.0522
v  733.6018 49.2996 241.0472
v  733.6018 52.2692 257.8884
v  733.6018 43.7187 272.6983
v  733.5708 27.8195 278.7258
v  733.5708 11.7498 272.8770
v  733.5874 3.1993 257.8857
v  733.5874 6.1688 241.0445
v  581.1046 10.9397 241.6208
v  584.3928 19.6671 231.0866
v  581.1345 8.2366 257.7143
v  584.3656 12.4906 271.7390
v  584.3116 27.8568 277.1941
v  584.3790 43.0384 271.8517
v  589.8837 48.0514 257.6434
v  584.3790 48.3732 241.5966
v  584.3928 36.0139 231.0866
v  580.9417 28.2965 253.5037
# 83 vertices

vn 0.0933 0.3487 -0.9326
vn 0.1415 -0.3328 -0.9323
vn -0.0931 -0.3094 -0.9464
vn -0.0679 0.4029 -0.9127
vn -0.0050 0.8874 -0.4610
vn -0.0130 0.8883 -0.4590
vn -0.0624 0.9784 0.1973
vn -0.0008 0.9930 0.1185
vn -0.1272 0.6210 0.7734
vn -0.0107 0.5631 0.8263
vn -0.2569 -0.0977 0.9615
vn 0.0473 -0.0883 0.9950
vn -0.2424 -0.6294 0.7383
vn -0.2537 -0.5954 0.7623
vn -0.1184 -0.9305 0.3466
vn -0.0465 -0.9724 0.2285
vn 0.0814 -0.8545 -0.5131
vn -0.0824 -0.8868 -0.4547
vn 0.0923 0.3081 -0.9469
vn 0.0679 -0.3576 -0.9314
vn -0.1339 -0.3799 -0.9153
vn 0.0057 0.4490 -0.8935
vn 0.0538 0.8666 -0.4961
vn 0.0153 0.9240 -0.3821
vn 0.0000 0.9902 0.1399
vn 0.0509 0.9697 0.2389
vn 0.0000 0.7127 0.7015
vn 0.0706 0.6882 0.7221
vn 0.0000 0.0912 0.9958
vn 0.0734 0.0374 0.9966
vn 0.0000 -0.6658 0.7461
vn 0.0338 -0.6780 0.7343
vn 0.0000 -0.9942 0.1074
vn 0.0401 -0.9732 0.2266
vn 0.0217 -0.8620 -0.5064
vn -0.0231 -0.8973 -0.4409
vn 0.9080 0.1599 -0.3872
vn 0.8874 0.4101 -0.2105
vn 1.0000 0.0000 -0.0000
vn 0.8668 0.4880 0.1022
vn 0.8688 0.3242 0.3743
vn 0.8855 0.0057 0.4645
vn 0.8902 -0.2943 0.3477
vn 0.8931 -0.4403 0.0921
vn 0.9051 -0.3746 -0.2014
vn 0.9142 -0.1435 -0.3791
vn 0.0116 0.3022 -0.9532
vn 0.0453 -0.5017 -0.8639
vn -0.4265 -0.3027 -0.8523
vn -0.4067 0.3472 -0.8450
vn -0.0497 0.9358 -0.3490
vn -0.3449 0.8817 -0.3220
vn -0.0130 0.9301 0.3672
vn -0.1289 0.9712 0.2001
vn 0.0000 0.5771 0.8167
vn -0.2403 0.6618 0.7101
vn 0.0000 -0.0677 0.9977
vn -0.1785 -0.0153 0.9838
vn 0.0000 -0.6906 0.7232
vn -0.1946 -0.5821 0.7895
vn -0.0004 -0.9623 0.2720
vn -0.4052 -0.8909 0.2053
vn 0.0172 -0.9557 -0.2939
vn -0.4898 -0.7651 -0.4180
vn 0.4295 0.3281 -0.8413
vn 0.4685 -0.3079 -0.8281
vn 0.3181 0.8301 -0.4580
vn 0.2212 0.9589 0.1775
vn 0.2289 0.6684 0.7077
vn 0.3166 0.0574 0.9468
vn 0.3425 -0.6187 0.7070
vn 0.3532 -0.9225 0.1554
vn 0.4166 -0.7944 -0.4421
vn -0.8997 -0.3511 -0.2592
vn -0.8430 -0.1415 -0.5190
vn -0.8985 -0.4239 0.1138
vn -0.8433 -0.3300 0.4243
vn -0.8591 0.0010 0.5118
vn -0.8422 0.4673 0.2689
vn -0.7208 0.6834 0.1155
vn -0.8417 0.5315 -0.0949
vn -0.8567 0.1793 -0.4837
vn -0.9926 0.1192 0.0211
# 83 vertex normals

vt 0.2248 0.4929 0.0000
vt 0.2998 0.4937 0.0000
vt 0.3014 0.6008 0.0000
vt 0.2275 0.6028 0.0000
vt 0.1605 0.4897 0.0000
vt 0.1630 0.6085 0.0000
vt 0.0504 0.4943 0.0000
vt 0.0822 0.6130 0.0000
vt 0.6891 0.4860 0.0000
vt 0.7624 0.4965 0.0000
vt 0.7549 0.6130 0.0000
vt 0.6678 0.6112 0.0000
vt 0.6185 0.4780 0.0000
vt 0.6089 0.6090 0.0000
vt 0.5484 0.4725 0.0000
vt 0.5197 0.5394 0.0000
vt 0.4768 0.4847 0.0000
vt 0.4588 0.6047 0.0000
vt 0.3761 0.4909 0.0000
vt 0.3845 0.6009 0.0000
vt 0.2500 0.1449 0.0000
vt 0.3047 0.1462 0.0000
vt 0.3038 0.2514 0.0000
vt 0.2220 0.2060 0.0000
vt 0.1729 0.1389 0.0000
vt 0.1414 0.2524 0.0000
vt 0.0946 0.1331 0.0000
vt 0.0618 0.2478 0.0000
vt 0.7056 0.1482 0.0000
vt 0.7866 0.1497 0.0000
vt 0.7799 0.2681 0.0000
vt 0.7039 0.2680 0.0000
vt 0.6310 0.1475 0.0000
vt 0.6278 0.2642 0.0000
vt 0.5511 0.1469 0.0000
vt 0.5490 0.2615 0.0000
vt 0.4539 0.1462 0.0000
vt 0.4709 0.2609 0.0000
vt 0.3781 0.1461 0.0000
vt 0.3925 0.2580 0.0000
vt 0.0654 0.7866 0.0000
vt 0.1361 0.7624 0.0000
vt 0.1344 0.8711 0.0000
vt 0.2049 0.7888 0.0000
vt 0.2410 0.8529 0.0000
vt 0.2286 0.9263 0.0000
vt 0.1712 0.9736 0.0000
vt 0.0971 0.9730 0.0000
vt 0.0399 0.9250 0.0000
vt 0.0270 0.8513 0.0000
vt 0.2243 0.3701 0.0000
vt 0.3492 0.3723 0.0000
vt 0.3120 0.7113 0.0000
vt 0.2292 0.7162 0.0000
vt 0.1342 0.3179 0.0000
vt 0.1477 0.7259 0.0000
vt 0.0200 0.3686 0.0000
vt 0.0655 0.7021 0.0000
vt 0.6642 0.3758 0.0000
vt 0.7317 0.3804 0.0000
vt 0.7457 0.6969 0.0000
vt 0.6825 0.7342 0.0000
vt 0.6134 0.3733 0.0000
vt 0.6095 0.7398 0.0000
vt 0.5460 0.3716 0.0000
vt 0.5338 0.7325 0.0000
vt 0.4715 0.3726 0.0000
vt 0.4612 0.7354 0.0000
vt 0.4272 0.3734 0.0000
vt 0.3823 0.7267 0.0000
vt 0.2354 0.0345 0.0000
vt 0.3130 0.0384 0.0000
vt 0.1579 0.0258 0.0000
vt 0.0794 0.0200 0.0000
vt 0.7071 0.0308 0.0000
vt 0.7846 0.0359 0.0000
vt 0.6301 0.0360 0.0000
vt 0.5511 0.0360 0.0000
vt 0.4714 0.0360 0.0000
vt 0.3927 0.0381 0.0000
vt 0.1351 0.7559 0.0000
vt 0.0601 0.7818 0.0000
vt 0.2083 0.7839 0.0000
vt 0.2470 0.8519 0.0000
vt 0.2344 0.9297 0.0000
vt 0.1734 0.9800 0.0000
vt 0.0940 0.9789 0.0000
vt 0.0335 0.9279 0.0000
vt 0.0200 0.8497 0.0000
vt 0.2634 0.8093 0.0000
vt 0.3177 0.7689 0.0000
vt 0.3213 0.7742 0.0000
vt 0.2705 0.8118 0.0000
vt 0.3928 0.7559 0.0000
vt 0.3914 0.7624 0.0000
vt 0.4633 0.7748 0.0000
vt 0.4575 0.7797 0.0000
vt 0.4895 0.8492 0.0000
vt 0.4820 0.8494 0.0000
vt 0.4632 0.9214 0.0000
vt 0.4575 0.9163 0.0000
vt 0.3957 0.9653 0.0000
vt 0.3942 0.9573 0.0000
vt 0.3128 0.9468 0.0000
vt 0.3165 0.9401 0.0000
vt 0.2631 0.8880 0.0000
vt 0.2702 0.8856 0.0000
vt 0.3732 0.8527 0.0000
# 108 texture coords

o bûche
g bûche
usemtl mat_bûche
s off
f 1/1/1 2/2/2 3/3/3 4/4/4 
f 5/5/5 1/1/1 4/4/4 6/6/6 
f 7/7/7 5/5/5 6/6/6 8/8/8 
f 9/9/9 7/10/7 8/11/8 10/12/10 
f 11/13/11 9/9/9 10/12/10 12/14/12 
f 13/15/13 11/13/11 12/14/12 14/16/14 
f 15/17/15 13/15/13 14/16/14 16/18/16 
f 17/19/17 15/17/15 16/18/16 18/20/18 
f 2/2/2 17/19/17 18/20/18 3/3/3 
f 19/21/19 20/22/20 21/23/21 22/24/22 
f 23/25/23 19/21/19 22/24/22 24/26/24 
f 25/27/25 23/25/23 24/26/24 26/28/26 
f 27/29/27 25/30/25 26/31/26 28/32/28 
f 29/33/29 27/29/27 28/32/28 30/34/30 
f 31/35/31 29/33/29 30/34/30 32/36/32 
f 33/37/33 31/35/31 32/36/32 34/38/34 
f 35/39/35 33/37/33 34/38/34 36/40/36 
f 20/22/20 35/39/35 36/40/36 21/23/21 
f 37/41/37 38/42/38 39/43/39 
f 38/42/38 40/44/40 39/43/39 
f 40/44/40 41/45/41 39/43/39 
f 41/45/41 42/46/42 39/43/39 
f 42/46/42 43/47/43 39/43/39 
f 43/47/43 44/48/44 39/43/39 
f 44/48/44 45/49/45 39/43/39 
f 45/49/45 46/50/46 39/43/39 
f 46/50/46 37/41/37 39/43/39 
f 47/51/47 48/52/48 2/2/2 1/1/1 
f 49/53/49 50/54/50 4/4/4 3/3/3 
f 5/5/5 51/55/51 47/51/47 1/1/1 
f 50/54/50 52/56/52 6/6/6 4/4/4 
f 7/7/7 53/57/53 51/55/51 5/5/5 
f 52/56/52 54/58/54 8/8/8 6/6/6 
f 9/9/9 55/59/55 53/60/53 7/10/7 
f 54/61/54 56/62/56 10/12/10 8/11/8 
f 11/13/11 57/63/57 55/59/55 9/9/9 
f 56/62/56 58/64/58 12/14/12 10/12/10 
f 13/15/13 59/65/59 57/63/57 11/13/11 
f 58/64/58 60/66/60 14/16/14 12/14/12 
f 15/17/15 61/67/61 59/65/59 13/15/13 
f 60/66/60 62/68/62 16/18/16 14/16/14 
f 17/19/17 63/69/63 61/67/61 15/17/15 
f 62/68/62 64/70/64 18/20/18 16/18/16 
f 2/2/2 48/52/48 63/69/63 17/19/17 
f 64/70/64 49/53/49 3/3/3 18/20/18 
f 65/71/65 66/72/66 20/22/20 19/21/19 
f 48/52/48 47/51/47 22/24/22 21/23/21 
f 67/73/67 65/71/65 19/21/19 23/25/23 
f 47/51/47 51/55/51 24/26/24 22/24/22 
f 68/74/68 67/73/67 23/25/23 25/27/25 
f 51/55/51 53/57/53 26/28/26 24/26/24 
f 69/75/69 68/76/68 25/30/25 27/29/27 
f 53/60/53 55/59/55 28/32/28 26/31/26 
f 70/77/70 69/75/69 27/29/27 29/33/29 
f 55/59/55 57/63/57 30/34/30 28/32/28 
f 71/78/71 70/77/70 29/33/29 31/35/31 
f 57/63/57 59/65/59 32/36/32 30/34/30 
f 72/79/72 71/78/71 31/35/31 33/37/33 
f 59/65/59 61/67/61 34/38/34 32/36/32 
f 73/80/73 72/79/72 33/37/33 35/39/35 
f 61/67/61 63/69/63 36/40/36 34/38/34 
f 66/72/66 73/80/73 35/39/35 20/22/20 
f 63/69/63 48/52/48 21/23/21 36/40/36 
f 67/81/67 38/42/38 37/41/37 65/82/65 
f 68/83/68 40/44/40 38/42/38 67/81/67 
f 69/84/69 41/45/41 40/44/40 68/83/68 
f 70/85/70 42/46/42 41/45/41 69/84/69 
f 71/86/71 43/47/43 42/46/42 70/85/70 
f 72/87/72 44/48/44 43/47/43 71/86/71 
f 73/88/73 45/49/45 44/48/44 72/87/72 
f 66/89/66 46/50/46 45/49/45 73/88/73 
f 65/82/65 37/41/37 46/50/46 66/89/66 
f 49/90/49 64/91/64 74/92/74 75/93/75 
f 64/91/64 62/94/62 76/95/76 74/92/74 
f 62/94/62 60/96/60 77/97/77 76/95/76 
f 60/96/60 58/98/58 78/99/78 77/97/77 
f 58/98/58 56/100/56 79/101/79 78/99/78 
f 56/100/56 54/102/54 80/103/80 79/101/79 
f 54/102/54 52/104/52 81/105/81 80/103/80 
f 52/104/52 50/106/50 82/107/82 81/105/81 
f 50/106/50 49/90/49 75/93/75 82/107/82 
f 75/93/75 74/92/74 83/108/83 
f 74/92/74 76/95/76 83/108/83 
f 76/95/76 77/97/77 83/108/83 
f 77/97/77 78/99/78 83/108/83 
f 78/99/78 79/101/79 83/108/83 
f 79/101/79 80/103/80 83/108/83 
f 80/103/80 81/105/81 83/108/83 
f 81/105/81 82/107/82 83/108/83 
f 82/107/82 75/93/75 83/108/83 
# 72 polygons - 18 triangles

